<svg width="250" height="81" viewBox="0 0 250 81" fill="none" xmlns="http://www.w3.org/2000/svg">
<path d="M21.7909 65.3389C21.7492 65.3089 21.7041 65.2684 21.6555 65.2278C20.8812 64.2519 16.0912 58.1534 11.2109 50.3308C9.74563 47.8391 8.79597 45.8945 8.98 45.3916C9.45743 44.084 17.9662 43.3675 20.586 44.5534C21.3829 44.9134 21.3621 45.388 21.3621 45.6669C21.3621 46.8633 21.3048 50.0749 21.3048 50.0749C21.3048 50.7384 21.8343 51.2766 22.4888 51.2748C23.1433 51.2748 23.6711 50.7331 23.6694 50.0678L23.6572 42.0688H23.6555C23.6555 41.3735 22.909 41.2006 22.7701 41.1723C21.402 41.1635 18.6259 41.1565 15.6433 41.1565C9.06333 41.1565 7.59109 41.4317 6.4765 40.6871C4.0546 39.0777 0.0944914 28.2288 0.00247655 22.1232C-0.127733 13.5118 4.88968 6.05621 11.9592 2.36284C14.9106 0.852316 18.244 0 21.7683 0C32.9559 0 42.1713 8.58316 43.397 19.628C43.397 19.6368 43.397 19.6492 43.3987 19.658C43.6244 22.3279 29.1469 22.8943 26.284 22.1179C25.8447 21.9996 25.7336 21.5408 25.7336 21.345C25.7319 19.3156 25.718 13.6018 25.718 13.6018C25.7163 12.9365 25.185 12.4001 24.5305 12.4001C23.8777 12.4001 23.3482 12.9418 23.3482 13.6071L23.3742 24.1313C23.3951 24.7948 23.942 24.973 24.093 25.0048C25.7215 25.0048 29.5288 25.003 33.0757 25.003C37.8692 25.003 39.8831 25.5677 41.2234 26.6036C42.114 27.2935 42.4578 28.6152 42.1574 30.334C39.4681 45.6157 22.4367 64.5519 21.7961 65.3407L21.7909 65.3389Z" fill="#F15431"/>
<path d="M63.9786 9.25263C67.0832 10.6069 69.002 12.1101 69.002 15.4147C69.002 18.784 66.4967 20.9612 62.6208 20.9612C59.4779 20.9612 56.9599 19.5098 55.704 16.9827L55.5 16.5745L59.1911 14.3909L59.4333 14.7926C60.262 16.1793 61.1928 16.7689 62.5443 16.7689C63.7045 16.7689 64.4886 16.2441 64.4886 15.46C64.4886 14.5918 63.9212 14.2678 62.1745 13.4903L61.2884 13.1015C58.9169 12.0712 56.724 10.6393 56.724 7.17269C56.724 4.05603 59.0636 1.88538 62.4168 1.88538C64.954 1.88538 66.7007 2.88971 67.8992 5.04092L68.1223 5.44266L64.546 7.78825L64.2974 7.34116C63.6981 6.2526 63.1371 6.0323 62.4231 6.0323C61.6773 6.0323 61.1928 6.45347 61.1928 7.1079C61.1928 7.85953 61.5498 8.18998 63.0989 8.87034L63.9786 9.25263ZM90.1221 9.88763L92.7294 2.47502H97.2046L90.5747 21.2657H89.5802L85.5576 12.4665C85.3727 12.0648 85.1751 11.5658 85.0094 11.1058C84.8373 11.5658 84.6396 12.0648 84.4548 12.473L80.2728 21.2722H79.2847L72.5465 2.4815H77.3276L79.9605 9.8941C80.1262 10.3671 80.2983 10.9438 80.4513 11.4751C80.6298 10.9244 80.8466 10.3282 81.0697 9.84875L84.5313 2.32599H85.4875L89.0001 9.84875C89.2232 10.3282 89.4399 10.9244 89.6184 11.4751C89.7778 10.9373 89.9563 10.3606 90.1221 9.88763ZM102.419 20.7279V2.09273H106.933V20.7279H102.419ZM121.742 14.4622V10.2958H130.125V18.648L129.952 18.7905C128.996 19.594 126.453 20.9547 123.004 20.9547C117.19 20.9547 113.135 17.0281 113.135 11.4038C113.135 5.88327 117.05 1.87891 122.449 1.87891C125.413 1.87891 127.594 2.73421 129.098 4.48368L129.391 4.8271L126.312 7.93728L125.981 7.58739C125.12 6.68673 124.228 6.12301 122.456 6.12301C119.695 6.12301 117.764 8.29366 117.764 11.4038C117.764 14.6436 119.823 16.7365 123.017 16.7365C124.075 16.7365 125.178 16.5486 125.93 16.2505V14.4557L121.742 14.4622ZM144.627 14.4622V10.2958H153.01V18.648L152.838 18.7905C151.876 19.594 149.338 20.9547 145.89 20.9547C140.076 20.9547 136.021 17.0281 136.021 11.4038C136.021 5.88327 139.935 1.87891 145.329 1.87891C148.299 1.87891 150.473 2.73421 151.978 4.48368L152.271 4.8271L149.192 7.93728L148.854 7.58739C147.993 6.68673 147.101 6.12301 145.322 6.12301C142.562 6.12301 140.63 8.29366 140.63 11.4038C140.63 14.6436 142.689 16.7365 145.883 16.7365C146.942 16.7365 148.044 16.5486 148.797 16.2505V14.4557L144.627 14.4622ZM169.566 2.09273H174.283L167.807 14.4946V20.7279H163.268V14.7602L156.364 2.09921H161.4L164.587 8.04095C164.931 8.68891 165.288 9.54421 165.563 10.2375C165.824 9.55069 166.162 8.70187 166.506 8.04743L169.566 2.09273Z" fill="#F15431"/>
<path d="M93.6693 64.7321V28.2378H82.9033L74.1827 50.2876L65.4622 28.2378H54.75V64.7321H62.3939V39.1806L72.514 64.7321H75.8515L85.9716 39.1806V64.7321H93.6693Z" fill="white"/>
<path d="M111.62 65.3886C120.233 65.3886 125.401 59.0418 125.401 51.4913C125.401 43.9954 120.233 37.6486 111.62 37.6486C103.061 37.6486 97.8933 43.9954 97.8933 51.4913C97.8933 59.0418 103.061 65.3886 111.62 65.3886ZM111.62 59.2059C107.367 59.2059 104.999 55.6495 104.999 51.4913C104.999 47.3877 107.367 43.8313 111.62 43.8313C115.873 43.8313 118.295 47.3877 118.295 51.4913C118.295 55.6495 115.873 59.2059 111.62 59.2059Z" fill="white"/>
<path d="M138.582 65.3886C147.195 65.3886 152.362 59.0418 152.362 51.4913C152.362 43.9954 147.195 37.6486 138.582 37.6486C130.023 37.6486 124.855 43.9954 124.855 51.4913C124.855 59.0418 130.023 65.3886 138.582 65.3886ZM138.582 59.2059C134.329 59.2059 132.46 55.6495 132.46 51.4913C132.46 47.3877 134.329 43.8313 138.582 43.8313C142.834 43.8313 145.257 47.3877 145.257 51.4913C145.257 55.6495 142.834 59.2059 138.582 59.2059Z" fill="white"/>
<path d="M182.743 64.7321V28.2378H175.853V41.6975C173.807 39.0165 170.9 37.6486 167.832 37.6486C161.211 37.6486 156.312 42.9012 156.312 51.546C156.312 60.3549 161.265 65.3886 167.832 65.3886C170.954 65.3886 173.807 63.9661 175.853 61.3398V64.7321H182.743ZM169.931 59.2059C166.055 59.2059 163.364 56.0872 163.364 51.546C163.364 46.95 166.055 43.8313 169.931 43.8313C172.246 43.8313 174.722 45.0897 175.853 46.8406V56.1967C174.722 57.9475 172.246 59.2059 169.931 59.2059Z" fill="white"/>
<path d="M191.837 35.4601C194.098 35.4601 195.928 33.5998 195.928 31.3018C195.928 29.0038 195.346 27.1982 193.085 27.1982C190.878 27.1982 187.746 29.0038 187.746 31.3018C187.746 33.5998 189.63 35.4601 191.837 35.4601ZM195.282 64.7321V38.3052H188.445V64.7321H195.282Z" fill="white"/>
<path d="M210.351 65.3886C217.564 65.3886 221.601 61.7228 221.601 56.908C221.601 46.2387 206.206 49.5216 206.206 45.5822C206.206 44.1049 207.821 42.9559 210.297 42.9559C213.473 42.9559 216.433 44.3237 217.994 46.0199L220.74 41.2597C218.156 39.1806 214.657 37.6486 210.243 37.6486C203.406 37.6486 199.585 41.5333 199.585 45.9652C199.585 56.3608 215.034 52.8044 215.034 57.1815C215.034 58.8229 213.634 60.0267 210.674 60.0267C207.444 60.0267 203.568 58.2211 201.684 56.4155L198.723 61.2851C201.469 63.8566 205.829 65.3886 210.351 65.3886Z" fill="white"/>
<path d="M250 64.7321V45.9652C250 40.822 247.255 37.6486 241.549 37.6486C237.296 37.6486 234.066 39.7278 232.397 41.7522V28.2378H225.561V64.7321H232.397V46.95C233.582 45.3633 235.681 43.8313 238.319 43.8313C241.279 43.8313 243.163 44.9803 243.163 48.6461V64.7321H250Z" fill="white"/>
<path d="M106.766 61.5537C106.766 64.0538 107.25 66.5295 108.191 68.8393C109.133 71.1492 110.512 73.2479 112.252 75.0158C113.991 76.7836 116.056 78.186 118.328 79.1427C120.601 80.0995 123.037 80.5919 125.496 80.5919C127.956 80.5919 130.392 80.0995 132.664 79.1427C134.937 78.186 137.002 76.7836 138.741 75.0158C140.48 73.2479 141.86 71.1491 142.801 68.8393C143.743 66.5295 144.227 64.0538 144.227 61.5537L140.598 64.346C140.598 66.3617 140.208 68.3577 139.449 70.2201C138.69 72.0824 137.577 73.7745 136.175 75.1999C134.773 76.6252 133.108 77.7559 131.276 78.5273C129.443 79.2986 127.48 79.6957 125.496 79.6957C123.513 79.6957 121.549 79.2986 119.717 78.5273C117.885 77.7559 116.22 76.6252 114.818 75.1999C113.415 73.7745 112.303 72.0824 111.544 70.2201C110.785 68.3577 110.395 66.3617 110.395 64.346L106.766 61.5537Z" fill="white"/>
</svg>
